<?xml version="1.0" encoding="utf-8"?>
<!-- Generator: Adobe Illustrator 16.0.0, SVG Export Plug-In . SVG Version: 6.00 Build 0)  -->
<!DOCTYPE svg PUBLIC "-//W3C//DTD SVG 1.1//EN" "http://www.w3.org/Graphics/SVG/1.1/DTD/svg11.dtd">
<svg version="1.1" id="Layer_1" xmlns="http://www.w3.org/2000/svg" xmlns:xlink="http://www.w3.org/1999/xlink" x="0px" y="0px"
	 width="3000px" height="3000px" viewBox="0 0 3000 3000" enable-background="new 0 0 3000 3000" xml:space="preserve">
<g>
	<path fill="#EE0000" d="M865.433,1498.137c7.5,35.494,7.5,39.219,7.5,43.902c0,60.672-68.217,94.346-157.883,94.346
		c-202.652,0.133-380.169-118.617-380.169-197.103c-0.011-11.041,2.171-21.631,6.546-31.767
		c-72.896,3.64-167.244,16.642-167.244,99.94c0,136.428,323.263,304.584,579.221,304.584c196.238,0,245.73-88.76,245.73-158.84
		c0-55.123-47.672-117.705-133.613-155.063 M724.452,1547.629c54.218,0,132.661-11.182,132.661-75.67
		c0.162-4.996-0.286-9.937-1.345-14.822l-32.286-140.243c-7.454-30.857-13.998-44.856-68.171-71.943
		c-42.039-21.496-133.615-56.989-160.701-56.989c-25.223,0-32.546,32.503-62.625,32.503c-28.948,0-50.444-24.269-77.532-24.269
		c-26.004,0-42.948,17.725-56.038,54.173c0,0-36.447,102.801-41.127,117.708c-0.749,2.754-1.066,5.556-0.954,8.407
		c0,39.958,157.32,170.969,368.118,170.969"/>
	<path d="M865.433,1498.137c7.5,35.494,7.5,39.219,7.5,43.902c0,60.672-68.217,94.346-157.883,94.346
		c-202.652,0.133-380.169-118.617-380.169-197.103c-0.011-11.041,2.171-21.631,6.546-31.767l15.861-39.265
		c-0.731,2.696-1.048,5.442-0.954,8.234c0,39.958,157.32,170.969,368.118,170.969c54.218,0,132.661-11.178,132.661-75.667
		c0.162-4.996-0.286-9.937-1.345-14.822L865.433,1498.137z"/>
	<path d="M1151.47,1661.393h78.399v-116.234h59.678l60.198,116.234h87.76l-70.21-127.635c4.438-1.801,8.716-3.922,12.836-6.365
		c4.118-2.441,8.036-5.172,11.75-8.197c3.713-3.021,7.182-6.305,10.406-9.846s6.169-7.301,8.835-11.278
		c2.666-3.978,5.021-8.133,7.068-12.462c2.046-4.331,3.763-8.787,5.146-13.371c1.383-4.585,2.42-9.246,3.109-13.986
		c0.689-4.738,1.025-9.502,1.006-14.291c0-57.424-45.118-101.628-112.681-101.628H1151.47V1661.393z M1307.488,1409.335
		c26.004,0,40.565,16.382,40.565,36.014s-14.562,36.014-40.565,36.014h-77.531v-72.028H1307.488z M1434.601,1541.172
		c0,70.207,57.424,124.902,131.23,124.902c40.565,0,70.208-10.967,100.761-36.494l-48.796-43.338
		c-11.399,11.877-28.259,18.248-48.282,18.248c-3.131,0.086-6.248-0.061-9.356-0.439c-3.108-0.385-6.17-0.996-9.184-1.84
		c-3.017-0.842-5.952-1.904-8.809-3.189c-2.854-1.287-5.597-2.777-8.227-4.473c-2.631-1.701-5.121-3.584-7.468-5.658
		c-2.345-2.072-4.522-4.311-6.533-6.711c-2.012-2.4-3.829-4.941-5.456-7.613c-1.63-2.676-3.044-5.457-4.255-8.348h171.838v-18.332
		c0-76.578-51.487-131.705-121.695-131.705c-4.117-0.061-8.222,0.08-12.325,0.429c-4.101,0.348-8.177,0.898-12.224,1.652
		s-8.044,1.707-11.996,2.86c-3.95,1.154-7.834,2.5-11.654,4.04c-3.813,1.541-7.548,3.268-11.19,5.179
		c-3.647,1.912-7.188,4.001-10.624,6.268c-3.438,2.264-6.751,4.694-9.947,7.292c-3.193,2.595-6.25,5.344-9.172,8.247
		c-2.919,2.9-5.688,5.939-8.306,9.115c-2.615,3.178-5.069,6.478-7.356,9.899c-2.289,3.422-4.4,6.948-6.337,10.582
		c-1.936,3.632-3.687,7.351-5.253,11.159c-1.564,3.807-2.937,7.681-4.115,11.626c-1.179,3.943-2.158,7.936-2.938,11.979
		c-0.782,4.039-1.357,8.109-1.733,12.209c-0.375,4.1-0.543,8.207-0.509,12.322 M1558.852,1476.164
		c23.229,0,42.818,15.038,50.578,38.266h-100.545C1516.165,1490.464,1534.408,1476.164,1558.852,1476.164 M1893.557,1661.564h72.939
		v-335.18l-73.676,15.95v90.708c-9.376-5.317-19.282-9.328-29.719-12.032c-10.436-2.705-21.041-4.011-31.823-3.918
		c-70.164,0-125.332,54.217-125.332,123.515c-0.054,4.057,0.098,8.104,0.449,12.143c0.354,4.041,0.906,8.051,1.656,12.037
		c0.751,3.984,1.696,7.924,2.837,11.814c1.144,3.891,2.474,7.717,3.997,11.475c1.521,3.76,3.227,7.434,5.11,11.023
		c1.89,3.588,3.949,7.076,6.184,10.463c2.234,3.383,4.629,6.648,7.188,9.795c2.56,3.148,5.267,6.16,8.123,9.035
		c2.857,2.881,5.849,5.607,8.979,8.186c3.128,2.584,6.379,5,9.748,7.26c3.368,2.256,6.84,4.342,10.418,6.254
		c3.573,1.912,7.237,3.641,10.983,5.191c3.749,1.547,7.564,2.906,11.45,4.076c3.88,1.168,7.812,2.143,11.792,2.92
		c3.98,0.779,7.987,1.359,12.025,1.738c4.037,0.381,8.083,0.561,12.139,0.541c11.626,0.055,22.97-1.709,34.029-5.285
		c11.062-3.58,21.285-8.793,30.675-15.65L1893.557,1661.564z M1778.233,1540.607c0-34.67,27.346-61.106,63.36-61.106
		c9.37-0.189,18.452,1.33,27.247,4.561c8.798,3.232,16.703,7.951,23.722,14.161v84.292c-3.401,3.213-7.082,6.061-11.047,8.545
		c-3.964,2.484-8.133,4.555-12.507,6.215c-4.375,1.656-8.867,2.869-13.479,3.641c-4.615,0.77-9.262,1.08-13.936,0.928
		c-35.536,0-63.36-26.436-63.36-61.061 M2076.664,1661.521h78.399V1536.49h131.273v124.902h78.616v-319.059h-78.314v122.604
		h-131.271v-122.604h-78.401L2076.664,1661.521z M2477.375,1665.467c26.002,0,46.979-5.463,66.566-18.68v14.605h72.896v-154.547
		c0-58.765-39.61-91.009-105.702-91.009c-36.926,0-73.415,8.667-112.68,26.437l26.436,54.26
		c28.255-11.876,52.004-19.155,72.939-19.155c30.334,0,46.027,11.83,46.027,36.013v11.832c-17.938-4.643-36.168-6.926-54.696-6.848
		c-62.018,0-99.376,26.004-99.376,72.506c0,42.387,33.717,74.715,87.499,74.715 M2454.836,1589.363
		c0-15.949,15.992-23.705,40.135-23.705c14.805,0.086,29.395,1.902,43.771,5.461v30.988c-7.059,3.854-14.492,6.746-22.299,8.678
		c-7.806,1.93-15.73,2.836-23.771,2.717C2469.01,1613.502,2454.836,1604.402,2454.836,1589.363 M2684.533,1587.979
		c0,51.527,30.986,76.58,87.499,76.58c17.46-0.439,34.636-2.865,51.53-7.283v-59.764c-10.828,3.43-21.923,5.107-33.283,5.027
		c-23.273,0-31.899-7.281-31.899-29.168v-91.574h67.438v-61.541h-67.438v-78.01l-73.675,15.949v62.062h-48.93v61.541h48.758
		V1587.979z"/>
</g>
</svg>
